<?xml version="1.0" encoding="UTF-8" standalone="no"?>
<svg
   xmlns:dc="http://purl.org/dc/elements/1.1/"
   xmlns:cc="http://creativecommons.org/ns#"
   xmlns:rdf="http://www.w3.org/1999/02/22-rdf-syntax-ns#"
   xmlns:svg="http://www.w3.org/2000/svg"
   xmlns="http://www.w3.org/2000/svg"
   xmlns:xlink="http://www.w3.org/1999/xlink"
   xmlns:sodipodi="http://sodipodi.sourceforge.net/DTD/sodipodi-0.dtd"
   xmlns:inkscape="http://www.inkscape.org/namespaces/inkscape"
   width="400.0px"
   height="400.0px"
   viewBox="0 0 400.0 400.0"
   version="1.1"
   id="SVGRoot"
   sodipodi:docname="logo.svg"
   inkscape:version="1.0.1 (c497b03c, 2020-09-10)"
   inkscape:export-filename="/Volumes/DATA/Web Designing Project/Project/Project 14 (Portfolio)/photos/logo33.png"
   inkscape:export-xdpi="96"
   inkscape:export-ydpi="96">
  <defs
     id="defs10">
    <linearGradient
       inkscape:collect="always"
       id="linearGradient926">
      <stop
         style="stop-color:#00ffff;stop-opacity:1;"
         offset="0"
         id="stop922" />
      <stop
         style="stop-color:#00ffff;stop-opacity:0;"
         offset="1"
         id="stop924" />
    </linearGradient>
    <linearGradient
       inkscape:collect="always"
       id="linearGradient916">
      <stop
         style="stop-color:#00ffff;stop-opacity:1;"
         offset="0"
         id="stop912" />
      <stop
         style="stop-color:#00ffff;stop-opacity:0;"
         offset="1"
         id="stop914" />
    </linearGradient>
    <linearGradient
       inkscape:collect="always"
       xlink:href="#linearGradient916"
       id="linearGradient910"
       x1="70"
       y1="200"
       x2="320"
       y2="290"
       gradientUnits="userSpaceOnUse" />
    <filter
       inkscape:collect="always"
       style="color-interpolation-filters:sRGB"
       id="filter918"
       x="-0.015621118"
       width="1.0312422"
       y="-0.018609673"
       height="1.0372193">
      <feGaussianBlur
         inkscape:collect="always"
         stdDeviation="1.4353124"
         id="feGaussianBlur920" />
    </filter>
    <linearGradient
       inkscape:collect="always"
       xlink:href="#linearGradient926"
       id="linearGradient928"
       x1="89.412376"
       y1="214.73537"
       x2="413.53223"
       y2="214.73537"
       gradientUnits="userSpaceOnUse" />
    <linearGradient
       inkscape:collect="always"
       xlink:href="#linearGradient926"
       id="linearGradient938"
       gradientUnits="userSpaceOnUse"
       x1="89.412376"
       y1="214.73537"
       x2="413.53223"
       y2="214.73537" />
    <linearGradient
       inkscape:collect="always"
       xlink:href="#linearGradient926"
       id="linearGradient940"
       gradientUnits="userSpaceOnUse"
       x1="89.412376"
       y1="214.73537"
       x2="413.53223"
       y2="214.73537" />
    <linearGradient
       inkscape:collect="always"
       xlink:href="#linearGradient926"
       id="linearGradient942"
       gradientUnits="userSpaceOnUse"
       x1="89.412376"
       y1="214.73537"
       x2="413.53223"
       y2="214.73537" />
  </defs>
  <sodipodi:namedview
     id="base"
     pagecolor="#ffffff"
     bordercolor="#666666"
     borderopacity="1.0"
     inkscape:pageopacity="0.0"
     inkscape:pageshadow="2"
     inkscape:zoom="0.98994949"
     inkscape:cx="220.51991"
     inkscape:cy="194.88567"
     inkscape:document-units="px"
     inkscape:current-layer="layer1"
     inkscape:document-rotation="0"
     showgrid="true"
     inkscape:window-width="1366"
     inkscape:window-height="687"
     inkscape:window-x="0"
     inkscape:window-y="23"
     inkscape:window-maximized="1">
    <inkscape:grid
       type="xygrid"
       id="grid19" />
  </sodipodi:namedview>
  <metadata
     id="metadata13">
    <rdf:RDF>
      <cc:Work
         rdf:about="">
        <dc:format>image/svg+xml</dc:format>
        <dc:type
           rdf:resource="http://purl.org/dc/dcmitype/StillImage" />
        <dc:title />
      </cc:Work>
    </rdf:RDF>
  </metadata>
  <g
     inkscape:groupmode="layer"
     id="layer2"
     inkscape:label="Layer 2" />
  <g
     inkscape:label="Layer 1"
     inkscape:groupmode="layer"
     id="layer1">
    <g
       id="g936"
       transform="translate(8.6935015,-24.92888)">
      <path
         style="color:#000000;font-style:normal;font-variant:normal;font-weight:normal;font-stretch:normal;font-size:medium;line-height:normal;font-family:sans-serif;font-variant-ligatures:normal;font-variant-position:normal;font-variant-caps:normal;font-variant-numeric:normal;font-variant-alternates:normal;font-variant-east-asian:normal;font-feature-settings:normal;font-variation-settings:normal;text-indent:0;text-align:start;text-decoration:none;text-decoration-line:none;text-decoration-style:solid;text-decoration-color:#000000;letter-spacing:normal;word-spacing:normal;text-transform:none;writing-mode:lr-tb;direction:ltr;text-orientation:mixed;dominant-baseline:auto;baseline-shift:baseline;text-anchor:start;white-space:normal;shape-padding:0;shape-margin:0;inline-size:0;clip-rule:nonzero;display:inline;overflow:visible;visibility:visible;opacity:0.813505;isolation:auto;mix-blend-mode:normal;color-interpolation:sRGB;color-interpolation-filters:linearRGB;solid-color:#000000;solid-opacity:1;vector-effect:none;fill:url(#linearGradient910);fill-opacity:1;fill-rule:nonzero;stroke:none;stroke-width:5.96;stroke-linecap:butt;stroke-linejoin:miter;stroke-miterlimit:4;stroke-dasharray:none;stroke-dashoffset:0;stroke-opacity:1;filter:url(#filter918);color-rendering:auto;image-rendering:auto;shape-rendering:auto;text-rendering:auto;enable-background:accumulate;stop-color:#000000;stop-opacity:1"
         d="m 180,140 c -17.31515,-4.53954 -34.69989,-5.87406 -50.68509,-3.43711 -42.62728,6.49877 -65.43492,38.38531 -56.17366,78.72013 l 0.9563,0.0474 C 64.95193,175.499 181.84382,184.58364 129.71432,137.532 c 52.1295,97.05164 94.51508,13.75638 128.85792,49.81248 34.34281,36.05603 42.86161,79.5183 21.09347,107.42203 -21.76813,27.90384 -68.8688,33.73344 -116.24384,14.30321 l -0.13689,0.89329 c 68.55884,-5.37937 95.20099,13.74667 117.21518,-14.47254 22.01417,-28.2191 1.34366,-80.90683 -21.31101,-108.70784 C 239.34442,162.42988 208.85858,147.56569 180,139.99986 Z"
         id="path895"
         sodipodi:nodetypes="cccccssccsscc" />
      <g
         aria-label="MWD"
         transform="scale(0.89473074,1.1176547)"
         id="text28"
         style="font-style:normal;font-weight:normal;font-size:100.837px;line-height:1.25;font-family:sans-serif;mix-blend-mode:hard-light;fill:url(#linearGradient928);fill-opacity:1;stroke:none;stroke-width:2.52092">
        <path
           d="m 118.73598,191.67126 8.36947,36.80551 8.77282,-35.29295 q 1.10921,-4.43683 2.42009,-6.05022 1.41172,-1.71423 3.93264,-1.71423 2.21842,0 6.75608,0.50418 4.53767,0.50419 6.85692,0.50419 2.42008,0 11.9996,-0.8067 2.7226,-0.20167 4.03348,-0.20167 3.32762,0 5.34436,2.01674 2.01674,1.9159 2.01674,5.34436 0,2.82343 -1.61339,4.73934 -1.51256,1.9159 -3.83181,1.9159 -0.90753,0 -2.52092,-0.30251 -1.61339,-0.40335 -2.31925,-0.40335 -2.7226,0 -2.7226,6.75608 v 27.93185 q 0,6.85691 2.62176,6.85691 0.8067,0 2.42009,-0.30251 1.61339,-0.40334 2.42009,-0.40334 2.31925,0 3.93264,1.9159 1.61339,1.9159 1.61339,4.73934 0,3.42846 -2.01674,5.4452 -2.01674,1.9159 -5.34436,1.9159 -1.9159,0 -6.45357,-0.60502 -3.02511,-0.40335 -6.05022,-0.40335 -1.9159,0 -5.64687,0.50418 -3.73097,0.50419 -5.64687,0.50419 -3.02511,0 -4.94101,-2.01674 -1.81507,-2.01674 -1.81507,-5.34436 0,-6.2519 4.13432,-6.2519 0.60502,0 0.90753,0.10084 0.30251,0 0.70586,0 0.40335,0.10084 0.50418,0.10084 1.6134,0 1.91591,-2.21842 0.10083,-1.00837 0.10083,-3.42845 v -38.01555 l -14.01634,49.6118 q -1.81507,6.45357 -5.94938,6.45357 h -6.45357 q -4.03348,0 -5.54604,-5.74771 l -13.41132,-50.31766 v 38.01555 q 0,4.73933 0.90754,5.34436 0.30251,0.30251 1.1092,0.30251 0.20168,0 0.60503,-0.10084 0.30251,0 0.60502,0 0.30251,-0.10084 0.90753,-0.10084 4.03348,0 4.03348,6.15106 0,3.42846 -1.81507,5.4452 -1.81506,2.01674 -4.84017,2.01674 -1.41172,0 -3.63013,-0.30251 -2.823439,-0.40335 -3.529298,-0.50419 -2.117577,-0.20167 -4.840176,-0.20167 -3.428458,0 -5.747709,0.30251 -6.251894,0.8067 -6.251894,0.8067 -3.125947,0 -5.142686,-2.11758 -2.01674,-2.11758 -2.01674,-5.34436 0,-2.92428 1.512555,-4.73934 1.613392,-1.9159 4.033479,-1.9159 0.806696,0 2.319251,0.40334 1.613392,0.30251 2.420088,0.30251 2.01674,0 2.520925,-2.62176 0.201674,-1.00837 0.201674,-4.23515 v -27.93185 q 0,-3.22678 -0.201674,-4.13432 -0.504185,-2.62176 -2.520925,-2.62176 -0.806696,0 -2.420088,0.40335 -1.512555,0.30251 -2.420088,0.30251 -2.31925,0 -3.932642,-1.9159 -1.512555,-1.91591 -1.512555,-4.73934 0,-7.3611 7.461937,-7.3611 2.420088,0 8.06696,0.50418 5.646872,0.50419 8.470308,0.50419 4.537668,0 9.478678,-0.60502 3.32762,-0.40335 5.24352,-0.40335 2.52093,0 3.5293,1.21004 1.00837,1.21005 1.9159,5.04185 z"
           style="fill:url(#linearGradient938);fill-opacity:1"
           id="path897" />
        <path
           d="m 281.04063,169.25526 c -85.45106,9.69088 48.6675,32.05915 43.07923,-61.88757 0,-4.47366 -47.00276,-3.71262 -43.52272,19.64529 4.4048,29.5649 -3.10398,58.40639 -2.81916,58.40639 2.01674,0 3.66375,0.70586 4.94102,2.11757 1.34449,1.34449 2.01674,3.05872 2.01674,5.14269 0,1.81507 -0.50419,3.39485 -1.51256,4.73934 -0.94115,1.34449 -2.08397,2.01674 -3.42846,2.01674 -0.73947,0 -1.44532,-0.10084 -2.11757,-0.30251 -0.60503,-0.2689 -1.14283,-0.40335 -1.6134,-0.40335 -1.14281,0 -1.98312,0.84031 -2.52092,2.52093 0,0.0672 -0.30251,1.3781 -0.90753,3.93264 l -9.17617,40.73815 c -0.67225,2.75621 -1.17643,4.43682 -1.51256,5.04185 -0.73947,1.41171 -2.11757,2.11757 -4.13431,2.11757 -0.73947,0 -1.81507,-0.0672 -3.22679,-0.20167 -0.67225,-0.0672 -1.84868,-0.10084 -3.52929,-0.10084 -1.41172,0 -2.65538,0.0336 -3.73097,0.10084 l -3.22678,0.20167 h -0.50419 c -1.74784,0 -2.95788,-0.60502 -3.63013,-1.81506 -0.67225,-1.21005 -1.34449,-3.96626 -2.01674,-8.26864 l -5.4452,-35.19211 -5.54603,35.19211 c -0.67225,4.30238 -1.34449,7.05859 -2.01674,8.26864 -0.67225,1.21004 -1.88229,1.81506 -3.63014,1.81506 -0.60502,0 -1.84867,-0.0672 -3.73096,-0.20167 -0.94115,-0.0672 -2.15119,-0.10084 -3.63014,-0.10084 -0.73947,0 -1.88228,0.0672 -3.42845,0.20168 -1.47895,0.0672 -2.58816,0.10083 -3.32763,0.10083 -2.01674,0 -3.39484,-0.70586 -4.13431,-2.11757 -0.33613,-0.5378 -0.84031,-2.21842 -1.51256,-5.04185 l -1.21004,-5.14269 -8.06696,-35.59546 c -0.2689,-1.27727 -0.5378,-2.58815 -0.8067,-3.93264 -0.60502,-1.68062 -1.44533,-2.52093 -2.52092,-2.52093 -0.5378,0 -1.10921,0.10084 -1.71423,0.30251 -0.80669,0.2689 -1.47894,0.40335 -2.01674,0.40335 -1.34449,0 -2.52093,-0.67225 -3.5293,-2.01674 -1.00837,-1.34449 -1.51255,-2.95789 -1.51255,-4.84018 0,-2.08396 0.67225,-3.79819 2.01674,-5.14268 1.34449,-1.34449 3.02511,-2.01674 5.04185,-2.01674 1.14282,0 2.82344,0.16806 5.04185,0.50418 2.28564,0.33613 4.03348,0.50419 5.24352,0.50419 1.07559,0 3.19317,-0.20167 6.35273,-0.60502 2.08397,-0.2689 3.69736,-0.40335 4.84018,-0.40335 4.50405,0 6.75608,2.38647 6.75608,7.15942 0,4.30238 -1.27727,6.45357 -3.83181,6.45357 -0.13445,0 -0.33612,-0.0336 -0.60502,-0.10083 h -0.70586 c -0.67225,-0.13445 -1.07559,-0.20168 -1.21004,-0.20168 -1.14282,0 -1.71423,0.63863 -1.71423,1.9159 0,0.5378 0.0672,1.14282 0.20167,1.81507 l 6.45357,33.27621 6.65524,-43.35991 c 0.47057,-2.89066 0.97476,-4.77295 1.51256,-5.64687 0.53779,-0.87392 1.47894,-1.31088 2.82343,-1.31088 0.8067,0 2.05036,0.10084 3.73097,0.30251 1.68062,0.13445 2.92428,0.20167 3.73097,0.20167 0.8067,0 2.01674,-0.0672 3.63013,-0.20167 1.68062,-0.20167 2.92428,-0.30251 3.73097,-0.30251 1.68062,0 2.82344,0.77308 3.42846,2.31925 0.20167,0.53779 0.50418,2.08396 0.90753,4.6385 l 6.75608,43.35991 6.35273,-33.27621 c 0.20167,-0.73947 0.30251,-1.37811 0.30251,-1.9159 0,-1.21005 -0.57141,-1.81507 -1.71423,-1.81507 -0.20167,0 -0.63863,0.0672 -1.31088,0.20168 h -0.60502 c -0.2689,0.0672 -0.47057,0.10083 -0.60502,0.10083 -2.55454,0 -3.83181,-2.01674 -3.83181,-6.05022 0,-5.04185 2.25203,-7.56277 6.75608,-7.56277 1.14282,0 2.75621,0.13445 4.84018,0.40335 3.15956,0.40335 1.50897,-11.35023 19.90075,-16.56746"
           style="fill:url(#linearGradient940);fill-opacity:1"
           id="path899"
           sodipodi:nodetypes="ccsscscscsccccscsscsscccsssscscccccssssssscscsssccsscccsscscsccccssccssscc" />
        <path
           d="m 295.98222,240.27469 q 2.7226,0 2.7226,-6.85691 v -27.93185 q 0,-6.75608 -2.7226,-6.75608 -0.80669,0 -2.42009,0.40335 -1.51255,0.30251 -2.42008,0.30251 -2.31925,0 -3.93265,-1.9159 -1.51255,-1.91591 -1.51255,-4.73934 0,-3.32762 2.01674,-5.34436 2.01674,-2.01674 5.24352,-2.01674 1.71423,0 7.05859,0.60502 3.5293,0.40335 6.75608,0.40335 1.21005,0 5.64687,-0.30251 l 7.3611,-0.50419 q 2.92428,-0.20167 5.74771,-0.20167 18.2515,0 26.11679,15.42806 4.43682,8.67198 4.43682,18.65484 0,9.98287 -4.23515,18.35234 -4.23515,8.36947 -11.29374,12.30211 -6.2519,3.42846 -14.92388,3.42846 -3.42846,0 -5.84855,-0.20168 l -7.3611,-0.60502 q -2.42008,-0.20167 -5.64687,-0.20167 -4.03348,0 -6.75608,0.30251 l -4.03348,0.40335 q -2.31925,0.30251 -3.02511,0.30251 -3.22678,0 -5.24352,-2.01674 -2.01674,-2.01674 -2.01674,-5.34436 0,-2.82344 1.51255,-4.73934 1.6134,-1.9159 3.93265,-1.9159 0.90753,0 2.52092,0.40334 1.61339,0.30251 2.31925,0.30251 z m 26.21762,-41.94819 q -3.42846,0 -4.6385,1.10921 -1.10921,1.00837 -1.10921,4.13432 v 31.76365 q 0,3.12595 1.10921,4.23516 1.21004,1.1092 4.6385,1.1092 5.54604,0 9.98286,-4.53766 5.14269,-5.34436 5.14269,-15.83141 0,-11.79793 -5.14269,-17.4448 -2.31925,-2.52093 -5.04185,-3.63013 -2.31925,-0.90754 -4.94101,-0.90754 z"
           style="fill:url(#linearGradient942);fill-opacity:1"
           id="path901" />
      </g>
    </g>
    <ellipse
       style="fill:none"
       id="path36"
       ry="115"
       rx="110"
       cy="255"
       cx="310" />
  </g>
</svg>
